<?xml version="1.0" encoding="utf-8"?>
<!-- Generator: Adobe Illustrator 23.0.5, SVG Export Plug-In . SVG Version: 6.00 Build 0)  -->
<svg version="1.1" id="Layer_1" xmlns="http://www.w3.org/2000/svg" xmlns:xlink="http://www.w3.org/1999/xlink" x="0px" y="0px"
	 viewBox="0 0 68.5 79.1" style="enable-background:new 0 0 68.5 79.1;" xml:space="preserve">
<style type="text/css">
	.st0{fill:#0B69A3;}
</style>
<path class="st0" d="M-2049.7,85.1l-34.3-19.8V25.8l34.3-19.8l34.3,19.8v39.5L-2049.7,85.1z M-2079.4,62.8l29.8,17.2l29.8-17.2V28.4
	l-29.8-17.2l-29.8,17.2V62.8z"/>
<polygon class="st0" points="-2025,32.8 -2043.5,32.8 -2041.5,37.5 -2032.2,37.5 -2042.7,58.3 -2058.7,25.7 -2060.7,29.2 
	-2074.4,56.5 -2053.1,56.5 -2055.4,51.8 -2067.2,51.8 -2058.9,35.3 -2044.5,64.3 -2042.6,67.8 "/>
<path class="st0" d="M34.3,79.1L0,59.3V19.8L34.3,0l34.3,19.8v39.5L34.3,79.1z M4.5,56.7l29.8,17.2L64,56.7V22.4L34.3,5.2L4.5,22.4
	V56.7z"/>
<polygon class="st0" points="59,26.7 40.5,26.7 42.5,31.5 51.7,31.5 41.3,52.2 25.2,19.6 23.3,23.2 9.5,50.5 30.8,50.5 28.5,45.7 
	16.8,45.7 25.1,29.2 39.4,58.2 41.3,61.7 "/>
</svg>
